<?xml version="1.0" encoding="UTF-8"?>
<svg id="Calque_1" data-name="Calque 1" xmlns="http://www.w3.org/2000/svg" viewBox="0 0 1500 1500">
  <defs>
    <style>
      .cls-1 {
        fill: #fff;
      }

      .cls-2 {
        fill: #0f97de;
      }
    </style>
  </defs>
  <path class="cls-1" d="M1350.63,564.28c-17.04-16.12-33.23-33.56-48.11-51.82-79.75-97.9-106.84-138.15-120.95-199.26-.01-.05-.02-.09-.03-.14-3.21-13.76-11.21-26-22.52-34.46-10.32-7.72-23.1-11.97-35.99-11.97s-25.67,4.25-35.99,11.97c-11.31,8.46-19.31,20.7-22.52,34.46-.01.05-.02.1-.03.14-14.1,61.11-41.19,101.36-120.94,199.25-14.88,18.27-31.08,35.71-48.12,51.83-1.56,1.47-3.02,3.02-4.4,4.62v-159.86h41.83c24.57,0,46.66-14.98,55.75-37.81,9.09-22.83,3.34-48.89-14.51-65.78-17.04-16.12-33.23-33.56-48.12-51.83-79.75-97.89-106.84-138.15-120.94-199.25,0-.02,0-.04-.01-.06-3.19-13.76-11.17-26.01-22.46-34.49-10.34-7.76-23.15-12.03-36.07-12.03s-25.73,4.27-36.07,12.03c-11.3,8.48-19.27,20.73-22.46,34.49,0,.02,0,.04-.01.06-14.1,61.11-41.19,101.36-120.94,199.26-14.88,18.27-31.07,35.71-48.12,51.83-17.85,16.89-23.6,42.95-14.51,65.78,9.09,22.83,31.18,37.81,55.75,37.81h41.83v161.12c-16.09-15.42-31.38-32.01-45.5-49.34-79.75-97.89-106.84-138.15-120.94-199.25-3.19-13.82-11.19-26.1-22.55-34.6-10.32-7.72-23.1-11.97-35.99-11.97s-25.67,4.25-35.99,11.97c-11.31,8.46-19.31,20.7-22.52,34.46-.01.05-.02.1-.03.14-14.1,61.11-41.19,101.36-120.94,199.26-14.88,18.27-31.07,35.71-48.12,51.83-17.85,16.89-23.6,42.95-14.51,65.78,9.09,22.83,31.17,37.81,55.75,37.81h41.79l-.34,453.47c0,2.7.18,5.38.53,8.02l-29.54-18.41v279.34l31.45,16.26c43.68,22.58,86.43,39.81,127.08,51.22,41.97,11.78,83.1,17.75,122.25,17.75s80.56-6.46,118.2-19.2c29.5-9.98,54.57-24.72,89.28-45.12,4.29-2.52,8.77-5.15,13.47-7.91,11.84-6.93,21.32-12.68,28.93-17.3,5.98-3.63,12.1-7.34,16.3-9.71,4.2,2.37,10.32,6.08,16.3,9.71,7.61,4.62,17.09,10.37,28.93,17.3,4.71,2.75,9.19,5.39,13.47,7.91,34.71,20.4,59.78,35.13,89.28,45.12,37.65,12.74,77.42,19.2,118.2,19.2s80.28-5.97,122.25-17.75c40.65-11.41,83.41-28.64,127.08-51.22l31.45-16.26v-279.34l-38.34,23.9c1-4.35,1.53-8.84,1.53-13.41l.34-461.94h48.9c24.57,0,46.66-14.98,55.75-37.81,9.09-22.83,3.33-48.89-14.52-65.78Z"/>
  <path class="cls-2" d="M292.04,1129.77c74.99,41.74,143.63,62.47,206.8,62.47,32.22,0,63.01-5.39,92.49-16.13,25.04-9.12,47.5-24.21,85.49-48.13,45.18-28.45,51.85-36.31,69.29-36.31s24.11,7.86,69.29,36.31c37.99,23.92,60.45,39.01,85.49,48.13,29.47,10.74,60.26,16.13,92.48,16.13,63.16,0,131.81-20.73,206.8-62.47l.39-521.9h108.85c-17.74-16.77-35.75-35.85-53.4-57.52-79.27-97.31-115.38-147.78-132.89-223.66-.02-.09-.14-.09-.16,0-17.51,75.88-53.61,126.35-132.88,223.66-17.66,21.67-35.67,40.75-53.4,57.52h94.82v386.92c-34.94,6.35-66.56,4.58-94.62-5.64-22.47-8.19-39.73-20.43-59.73-34.6-18.99-13.46-32.53-22.33-46.1-29.71V349.05h101.83c-17.73-16.77-35.75-35.85-53.4-57.52-79.27-97.31-115.38-147.78-132.89-223.66-.02-.09-.14-.09-.16,0-17.51,75.88-53.61,126.35-132.89,223.66-17.66,21.67-35.67,40.75-53.4,57.52h101.83v575.37c-13.83,7.46-27.52,16.42-46.88,30.14-20,14.17-37.26,26.41-59.73,34.6-27.86,10.15-59.22,11.96-93.84,5.78v-378.68h101.84c-17.73-16.77-35.75-35.85-53.4-57.52-79.27-97.31-115.38-147.78-132.89-223.66-.02-.09-.14-.09-.16,0-17.51,75.88-53.61,126.35-132.89,223.66-17.66,21.67-35.67,40.75-53.4,57.52h101.83l-.39,513.52Z"/>
  <path class="cls-2" d="M955.35,1295.15c-24.19-8.19-42.78-20.43-64.3-34.6-36.42-23.98-54.23-33.58-86.73-45.65-30.67-11.39-46.56-12.13-54.32-12.13s-23.64.74-54.32,12.13c-32.51,12.07-50.31,21.67-86.73,45.65-21.52,14.17-40.11,26.41-64.3,34.6-73.09,24.73-168.21.81-283.45-71.02v139.14c80.73,41.74,154.62,62.47,222.62,62.47,34.68,0,67.83-5.39,99.56-16.13,26.96-9.12,51.13-24.21,92.03-48.13,48.64-28.45,55.82-36.31,74.59-36.31s25.95,7.86,74.59,36.31c40.9,23.92,65.08,39.01,92.03,48.13,31.73,10.74,64.88,16.13,99.56,16.13,68,0,141.89-20.73,222.62-62.47v-139.14c-115.24,71.83-210.36,95.75-283.45,71.02Z"/>
</svg>